<svg xmlns="http://www.w3.org/2000/svg" viewBox="0 0 80 80">
  <!-- fctr Favicon - F Icon with Indigo Gradient -->
  <defs>
    <linearGradient id="blockGrad" x1="0%" y1="0%" x2="0%" y2="100%">
      <stop offset="0%" stop-color="#4f46e5"/>
      <stop offset="100%" stop-color="#818cf8"/>
    </linearGradient>
  </defs>
  
  <!-- WIDER ARMS F Icon -->
  <!-- Vertical stem -->
  <path fill="url(#blockGrad)" d="M 10 10 C 10 4 14 0 20 0 L 32 0 L 32 80 L 20 80 C 14 80 10 76 10 70 L 10 10 Z"/>
  <!-- Top arm -->
  <path fill="url(#blockGrad)" d="M 36 0 L 70 0 C 76 0 80 4 80 10 L 80 22 C 80 28 76 32 70 32 L 36 32 L 36 0 Z"/>
  <!-- Bottom arm -->
  <path fill="url(#blockGrad)" d="M 36 40 L 60 40 C 66 40 70 44 70 50 L 70 54 C 70 60 66 64 60 64 L 36 64 L 36 40 Z"/>
</svg>
