<svg xmlns="http://www.w3.org/2000/svg" viewBox="0 0 380 90" width="100%" height="100%" preserveAspectRatio="xMidYMid meet" role="img" aria-labelledby="fctrTitle">
  <title id="fctrTitle">fctr - Identity Security Platform</title>
  
  <defs>
    <!-- Vertical gradient: dark top, light bottom -->
    <linearGradient id="blockGrad" x1="0%" y1="0%" x2="0%" y2="100%">
      <stop offset="0%" stop-color="#4f46e5"/>
      <stop offset="100%" stop-color="#818cf8"/>
    </linearGradient>
  </defs>

  <!-- ===================== -->
  <!-- ICON: WIDER ARMS F -->
  <!-- ===================== -->
  <g id="icon" transform="translate(5, 5) scale(1)">
    <!-- Vertical stem -->
    <path fill="url(#blockGrad)" d="M 10 10 C 10 4 14 0 20 0 L 32 0 L 32 80 L 20 80 C 14 80 10 76 10 70 L 10 10 Z"/>
    <!-- Top arm -->
    <path fill="url(#blockGrad)" d="M 36 0 L 70 0 C 76 0 80 4 80 10 L 80 22 C 80 28 76 32 70 32 L 36 32 L 36 0 Z"/>
    <!-- Bottom arm -->
    <path fill="url(#blockGrad)" d="M 36 40 L 60 40 C 66 40 70 44 70 50 L 70 54 C 70 60 66 64 60 64 L 36 64 L 36 40 Z"/>
  </g>

  <!-- ===================== -->
  <!-- WORDMARK: FCTR with EVEN MORE SPACING (40px gap) -->
  <!-- ===================== -->
  <g id="wordmark" fill="#374151">
    <!-- F - clean geometric -->
    <path d="M130 17 L170 17 L170 29 L145 29 L145 37 L165 37 L165 49 L145 49 L145 69 L130 69 Z"/>
    
    <!-- C - MORE OPEN aperture -->
    <path d="M178 43 
             C178 29 189 17 205 17 
             C215 17 223 21 229 28 
             L219 38 
             C216 34 211 31 205 31 
             C197 31 192 37 192 43 
             C192 49 197 55 205 55 
             C211 55 216 52 219 48 
             L229 58 
             C223 65 215 69 205 69 
             C189 69 178 57 178 43 Z"/>
    
    <!-- T - clean geometric -->
    <path d="M238 17 L288 17 L288 29 L270 29 L270 69 L256 69 L256 29 L238 29 Z"/>
    
    <!-- R - clean geometric with bowl -->
    <path d="M298 17 L328 17 C340 17 348 25 348 35 C348 43 343 49 335 51 L350 69 L332 69 L320 53 L313 53 L313 69 L298 69 L298 17 Z M313 29 L313 43 L326 43 C331 43 334 40 334 36 C334 32 331 29 326 29 Z"/>
  </g>
</svg>
