<svg viewBox="0 0 340 80" xmlns="http://www.w3.org/2000/svg" shape-rendering="geometricPrecision">
  <defs>
    <linearGradient id="RidgeFlow" x1="0" y1="0" x2="1" y2="1">
      <stop offset="0%" style="stop-color:#22d3ee" />
      <stop offset="50%" style="stop-color:#007DC1" />
      <stop offset="100%" style="stop-color:#a5b4fc" />
    </linearGradient>
    <filter id="statusGlow" filterUnits="userSpaceOnUse" x="0" y="0" width="120" height="120">
      <feGaussianBlur stdDeviation="2.2" result="blur" />
      <feComposite in="SourceGraphic" in2="blur" operator="over" />
    </filter>
  </defs>

  <!-- ICON: Slightly reduced to allow the wordmark to breathe -->
  <g transform="translate(14, 6) scale(0.62)">
    <g fill="none" stroke-linecap="round" stroke-linejoin="round">
      <path d="M 12,98 V 44 A 38,36 0 0 1 88,44 V 58" stroke="url(#RidgeFlow)" stroke-width="11" />
      <path d="M 22,92 V 44 A 28,26 0 0 1 78,44 V 66" stroke="#007DC1" stroke-width="10" stroke-opacity="0.4" />
      <path d="M 38,44 A 12,12 0 0 1 62,44 V 74 A 12,12 0 0 1 38,74 V 70" stroke="#22d3ee" stroke-width="10" />
      <path d="M 49,52 V 66" stroke="#ffffff" stroke-width="10" />
    </g>
    <circle cx="12" cy="95" r="3.5" fill="#22d3ee" filter="url(#statusGlow)" />
  </g>

  <!-- WORDMARK: Increased to 0.95 Scale for "Typographic Authority" -->
  <g transform="translate(105, 21) scale(0.95)" fill="#ffffff">
    <path d="M 0,0 H 36 V 10 H 13 V 16 H 32 V 26 H 13 V 40 H 0 V 0 Z" />
    <path d="M 85.5,14 A 20,20 0 1 0 85.5,26 H 71.5 A 7,9 0 1 1 71.5,14 Z" />
    <path d="M 94,0 H 134 V 10 H 120.5 V 40 H 107.5 V 10 H 94 V 0 Z" />
    <path d="M 144,0 H 170 C 182,0 188,5 188,13 C 188,19 184,23 176,25 L 190,40 H 176 L 164,26 H 157 V 40 H 144 V 0 Z M 157,9 V 17 H 170 C 174,17 175,16 175,13.5 C 175,11 174,10 170,10 H 157 Z" />
  </g>
</svg>