<svg xmlns="http://www.w3.org/2000/svg" viewBox="0 0 1206 270" fill="none">
    <g transform="translate(0.000000,269.000000) scale(0.100000,-0.100000)" fill="#000000" stroke="none">
        <path
            d="M945 2460 c-70 -8 -149 -32 -220 -68 -183 -91 -306 -235 -370 -432
            -25 -76 -29 -104 -33 -257 l-4 -173 903 0 c573 0 927 4 968 10 158 26 285 95
            402 218 85 90 146 197 174 307 20 77 38 255 31 303 -3 20 -5 52 -6 70 l0 32
            -892 -1 c-491 -1 -920 -5 -953 -9z m1802 -34 c26 -23 28 -29 27 -103 -1 -132
            -26 -299 -43 -289 -3 2 -7 -10 -8 -27 -1 -17 -8 -34 -15 -39 -7 -4 -9 -8 -4
            -8 6 0 5 -5 -2 -12 -7 -7 -12 -19 -12 -28 0 -8 -13 -30 -29 -48 -17 -17 -27
            -32 -24 -32 8 0 -127 -129 -167 -159 -19 -14 -39 -32 -43 -38 -4 -7 -18 -13
            -31 -13 -13 0 -29 -6 -35 -14 -12 -14 -67 -32 -83 -28 -5 1 -8 -2 -8 -7 0 -5
            -10 -9 -22 -10 -48 -2 -68 -6 -68 -13 0 -6 -94 -10 -205 -9 -11 0 -69 0 -130
            -1 -60 0 -119 0 -130 0 -11 0 -213 0 -450 1 -236 0 -524 1 -638 1 -238 1 -260
            4 -277 35 -20 38 -14 247 9 308 6 15 8 27 5 27 -3 0 -2 6 3 13 4 6 8 14 9 17
            1 3 5 20 9 38 4 17 11 32 16 32 5 0 8 3 7 8 -4 12 35 92 45 92 4 0 5 5 2 11
            -4 6 2 13 14 16 11 3 19 9 16 13 -2 4 5 16 15 28 11 12 20 26 20 32 0 5 4 10
            10 10 5 0 25 16 44 35 20 19 40 35 46 35 5 0 10 5 10 10 0 6 7 10 15 10 8 0
            15 4 15 8 0 8 47 39 65 42 6 1 27 11 48 21 21 11 42 17 46 14 5 -3 11 0 13 6
            4 11 30 16 127 23 35 3 66 7 69 10 3 3 385 6 848 6 l843 0 28 -24z"
            fill="#000000"
            stroke="#000000"
            stroke-width="10"
        />
        <path
            d="M892 1135 c-44 -8 -110 -31 -170 -60 -84 -41 -109 -60 -187 -139
            -136 -137 -193 -262 -214 -475 -6 -52 -7 -130 -4 -173 l6 -79 931 3 c1032 5
            971 1 1121 72 171 81 293 212 364 389 35 86 48 164 50 290 1 61 5 122 8 135
            13 55 57 52 -926 51 -702 -1 -922 -4 -979 -14z m1843 -11 c14 -3 22 -10 19
            -15 -3 -5 -1 -9 3 -9 16 0 21 -99 10 -205 -3 -27 -8 -69 -10 -91 -2 -23 -7
            -47 -11 -53 -4 -6 -10 -23 -12 -38 -6 -34 -42 -113 -52 -113 -4 0 -18 -21 -32
            -47 -14 -27 -44 -68 -67 -91 -23 -24 -43 -48 -45 -53 -2 -6 -10 -11 -19 -12
            -8 -2 -31 -17 -50 -35 -19 -18 -46 -35 -61 -39 -15 -3 -25 -9 -22 -14 3 -5 -2
            -9 -10 -9 -9 0 -39 -11 -66 -24 -28 -13 -47 -19 -43 -13 5 9 3 9 -8 1 -8 -6
            -21 -12 -29 -13 -51 -5 -67 -8 -76 -13 -13 -8 -1700 -10 -1750 -2 -26 4 -45
            14 -54 27 -16 26 -22 144 -9 169 5 10 5 19 0 22 -5 4 -5 21 0 43 9 38 21 107
            22 130 0 7 4 10 9 7 4 -3 9 4 9 15 2 30 3 34 14 51 5 8 10 21 11 28 2 8 9 21
            17 30 8 10 18 27 21 40 4 12 14 22 22 22 8 0 13 4 10 9 -3 4 3 16 14 26 11 10
            17 23 13 29 -3 6 -3 8 2 4 8 -8 35 15 35 31 0 5 14 18 30 28 17 9 30 21 30 26
            0 4 5 5 10 2 6 -3 10 1 10 10 0 11 5 15 15 11 8 -3 15 0 15 7 1 11 147 90 173
            93 27 3 27 3 84 19 37 10 242 13 926 14 482 1 888 -2 902 -5z"
            fill="#000000"
            stroke="#000000"
            stroke-width="10"
        />
    </g>
</svg>