<?xml version="1.0" encoding="utf-8"?>
<svg version="1.0" xmlns="http://www.w3.org/2000/svg" width="350px" height="75px" preserveAspectRatio="xMidYMid meet" viewBox="0 0 350 75" xmlns:bx="https://boxy-svg.com">
  <defs>
    <bx:export>
      <bx:file format="png" href="#object-0" />
      <bx:file format="png" href="#object-1" path="Untitled 2.png" />
      <bx:file format="png" href="#object-2" path="Untitled 3.png" />
      <bx:file format="png" href="#object-3" path="Untitled 4.png" />
      <bx:file format="png" href="#object-5" path="Untitled 5.png" />
      <bx:file format="png" href="#object-4" path="Layer 1.png" />
      <bx:file format="svg" />
    </bx:export>
  </defs>
  <g id="object-6" transform="matrix(0.714106, 0, 0, 0.699667, -5.095042, 0.047607)" style="transform-origin: 166.915px 38.87px;">
    <g id="object-5">
      <g fill="#ADD8E6" transform="matrix(0.177336, 0, 0, 0.179065, -80.714793, -28.512217)" style="" id="object-0">
        <path d="M712.50 555 c0 -1.45 0.10 -1.50 2.25 -1.50 1.90 0 2.25 0.15 2.25 0.95 0 1.20 -0.20 1.30 -2.60 1.75 -1.85 0.35 -1.90 0.30 -1.90 -1.20z" style="fill-opacity: 0.8;"/>
        <path d="M717.50 553.80 c0 -1.95 0.40 -2.30 3.65 -3.50 2.10 -0.80 3.15 -1.80 1.85 -1.80 -0.25 0 -0.50 -0.90 -0.50 -2 0 -1.80 0.10 -2 1.30 -2 1.45 0 3.35 -1.55 2.30 -1.90 -0.35 -0.10 -0.60 -1.05 -0.60 -2.15 0 -1.05 -0.20 -1.95 -0.50 -1.95 -0.25 0 -0.50 -0.45 -0.50 -1 0 -0.55 -0.20 -1 -0.50 -1 -0.25 0 -0.50 -0.60 -0.50 -1.30 0 -1.45 -1.05 -2.70 -2.20 -2.70 -0.55 0 -0.80 -0.45 -0.80 -1.50 0 -0.80 -0.20 -1.50 -0.50 -1.50 -0.25 0 -0.50 -0.45 -0.50 -1 0 -0.55 -0.20 -1 -0.50 -1 -0.25 0 -0.50 -0.45 -0.50 -1 0 -0.55 -0.20 -1 -0.50 -1 -0.25 0 -0.50 -1.30 -0.50 -2.85 0 -2.65 -0.15 -3.05 -1.70 -4.50 -0.90 -0.90 -1.95 -1.65 -2.25 -1.65 -1.10 0 -1.90 -1.25 -2.20 -3.45 -0.35 -2.90 -1.95 -3.85 -6.70 -4 -1.80 -0.05 -2.15 -0.20 -2.15 -1.05 0 -0.90 0.35 -1 3.40 -1 6.95 0.05 18.35 2.25 25.50 5 6.10 2.35 16.45 8.35 18.75 10.90 0.90 0.95 0.85 1.10 -0.60 4.30 -5.65 12.45 -17.10 23.10 -29.40 27.35 l-2.65 0.90 0 -1.65z" style="fill-opacity: 0.8;" />
        <path d="M699.70 491.90 c-11.95 -1.25 -21.80 -9.80 -25.50 -22.15 -1.20 -4.05 -1.20 -11.95 0 -16 3.15 -10.55 11.50 -18.80 21.80 -21.55 7.70 -2 17.30 -0.50 23.95 3.80 15.75 10.20 18.75 32.50 6.15 46.05 -7.05 7.65 -16 10.95 -26.40 9.85z" style="fill-opacity: 0.8;"/>
        <path d="M640.50 429.50 c0 -0.80 -0.35 -1 -1.50 -1 -1.40 0 -1.50 -0.10 -1.50 -2 0 -1.45 0.20 -2 0.75 -2 0.45 0 0.75 -0.45 0.75 -1.20 0 -2.20 -0.50 -2.80 -2.35 -2.80 -1.85 0 -3.15 -0.90 -3.15 -2.20 0 -0.45 -0.20 -0.80 -0.50 -0.80 -0.25 0 -0.50 -0.40 -0.50 -0.90 0 -0.50 -0.45 -1.20 -1 -1.60 -0.55 -0.40 -1 -1.05 -1 -1.50 0 -0.45 -0.45 -1.10 -1 -1.50 -0.55 -0.40 -1 -1.10 -1 -1.60 0 -0.55 -0.35 -0.90 -1 -0.90 -0.75 0 -1 -0.35 -1 -1.30 0 -2 -1.10 -2.70 -4.20 -2.70 l-2.80 0 0 -2.45 c0 -1.50 0.25 -2.55 0.60 -2.65 0.90 -0.30 -1.70 -2.80 -3.15 -3 -0.90 -0.10 -1.25 -0.50 -1.35 -1.50 -0.10 -0.80 -0.40 -1.40 -0.65 -1.40 -0.25 0 -0.45 -0.45 -0.45 -1.05 0 -1.25 -2.05 -5.95 -2.60 -5.95 -0.25 0 -0.40 -0.65 -0.40 -1.50 0 -1.15 -0.20 -1.50 -1 -1.50 -0.80 0 -1 -0.35 -1 -1.50 0 -1.15 -0.20 -1.50 -1 -1.50 -0.85 0 -1 -0.35 -1 -2 0 -1.50 -0.20 -2 -0.80 -2 -1 0 -2.20 -1.20 -2.20 -2.20 0 -0.45 -0.20 -0.80 -0.50 -0.80 -0.25 0 -0.50 -0.45 -0.50 -1 0 -1.50 -1.45 -1.25 -3.05 0.55 -1.15 1.30 -1.65 1.50 -3.50 1.35 -3.95 -0.30 -3.40 -1.45 4.40 -9.30 17.75 -17.90 38.30 -28 63.80 -31.35 4.55 -0.55 11 -0.75 28.15 -0.75 21.85 0 22.20 0 22.20 1 0 0.95 -0.35 1 -9.30 1 l-9.30 0 0.35 1.90 c0.15 1 0.55 2.05 0.80 2.30 0.25 0.30 0.45 1.35 0.45 2.40 0 1.05 0.25 1.90 0.50 1.90 0.30 0 0.50 0.30 0.50 0.65 0 0.35 0.45 1.15 1 1.75 0.55 0.60 1 1.40 1 1.80 0 0.40 0.25 0.90 0.50 1.05 0.30 0.15 0.50 1.10 0.50 2.05 0 0.95 -0.20 1.70 -0.50 1.70 -0.25 0 -0.50 0.25 -0.50 0.50 0 0.30 0.45 0.50 1 0.50 0.75 0 1 0.35 1 1.25 0 1.75 2.10 3.75 3.90 3.75 1.75 0 2.10 0.65 2.10 3.80 0 1.20 0.25 2.20 0.50 2.20 0.30 0 0.50 0.45 0.50 1 0 0.80 0.35 1 1.90 1 2.25 0 3.10 0.70 3.10 2.60 0 0.85 0.25 1.40 0.70 1.40 0.75 0 1.30 1.05 1.30 2.45 0 0.45 0.40 1.30 0.90 1.85 0.50 0.50 1.05 1.35 1.25 1.85 0.15 0.45 0.65 0.85 1.10 0.85 0.40 0 0.75 0.20 0.75 0.45 0 0.25 0.50 0.55 1.10 0.65 1.80 0.25 3.85 3.75 3.90 6.55 0 1.30 0.25 2.35 0.50 2.35 0.30 0 0.50 0.45 0.50 1 0 0.65 0.35 1 1 1 0.65 0 1 0.35 1 1 0 0.80 0.35 1 1.50 1 1.40 0 1.50 0.10 1.50 2 0 1.80 0.15 2 1.25 2 1.10 0 1.25 0.20 1.25 1.70 l0 1.75 -26.60 0.20 c-25.50 0.15 -26.85 0.20 -30.90 1.25 -10.60 2.75 -18.75 7.30 -25.65 14.25 -3.30 3.35 -7.25 8.80 -9.15 12.50 -1.30 2.45 -2.20 3.05 -2.20 1.35z" style="fill-opacity: 0.8;"/>
        <path d="M570.30 358.85 c-0.45 -1.90 -0.35 -43.65 0.20 -51.60 1.80 -27.95 12.65 -52.45 31.65 -71.35 l4.10 -4.05 0.15 1.65 c0.15 1.35 -0.20 2 -1.85 3.70 -2.10 2.15 -2.45 2.80 -1.50 2.80 0.80 0 3.05 2.45 3.80 4.15 0.40 0.80 1 1.35 1.65 1.35 0.65 0 1 0.35 1 0.90 0 1.30 1 2.10 2.60 2.10 1.20 0 1.40 0.20 1.40 1.50 0 0.85 0.25 1.50 0.50 1.50 0.30 0 0.50 0.70 0.50 1.50 0 1.05 0.25 1.50 0.80 1.50 0.95 0 2.20 1.20 2.20 2.15 0 0.40 0.45 0.85 1 1 0.70 0.15 1 0.70 1 1.55 0 0.85 0.25 1.30 0.75 1.30 0.45 0 0.95 0.40 1.10 0.85 0.20 0.45 1.20 1.70 2.25 2.80 1.05 1.10 1.90 2.40 1.90 2.95 0 0.50 0.45 1.40 1 2 0.55 0.60 1 1.60 1 2.25 0 0.95 0.25 1.15 1.50 1.15 1.15 0 1.50 0.20 1.50 1 0 0.55 0.25 1 0.50 1 0.30 0 0.50 0.55 0.50 1.15 0 0.75 0.95 2.15 2.50 3.75 1.40 1.40 2.50 2.80 2.50 3.10 0 1 2.45 3 3.65 3 1.55 0 2.35 0.90 2.35 2.75 l0.05 1.50 1.15 -1.40 c1 -1.25 1.40 -1.40 3.50 -1.25 l2.30 0.15 -2.25 3 c-4.25 5.65 -9.25 17.15 -9.25 21.30 0 0.80 -0.30 1.60 -0.60 1.70 -15.95 5.35 -32.15 14.15 -43.65 23.75 -5.45 4.55 -12.60 11.70 -17.35 17.30 -1.90 2.30 -3.70 4.05 -3.95 3.90 -0.25 -0.15 -0.45 0.20 -0.45 0.75 0 1.40 -1.30 1.35 -1.70 -0.10z" style="fill-opacity: 0.8;"/>
      </g>
      <g fill="#D8BFD8" transform="matrix(0.177336, 0, 0, 0.179065, -80.714793, -28.512217)" style="" id="object-1">
        <path d="M719 399.50 c0 -0.25 0.75 -0.50 1.65 -0.55 0.85 -0.05 2.40 -0.10 3.35 -0.20 0.95 -0.10 2.95 -0.15 4.40 -0.20 l2.60 -0.05 0 -2.25 c0 -2.15 -0.05 -2.25 -1.50 -2.25 -1.15 0 -1.50 -0.20 -1.50 -1 0 -0.65 -0.35 -1 -1 -1 -0.65 0 -1 -0.35 -1 -1 0 -0.55 -0.20 -1 -0.50 -1 -0.25 0 -0.50 -0.65 -0.50 -1.45 0 -0.80 -0.30 -1.60 -0.60 -1.70 -0.50 -0.20 -0.50 -0.40 0 -0.75 0.55 -0.40 0.45 -0.85 -0.60 -2.50 -1.40 -2.25 -2.40 -3.05 -2.70 -2.20 -0.30 0.95 -1.10 0.70 -1.10 -0.40 0 -0.55 -0.35 -1 -0.75 -1 -0.45 0 -0.95 -0.40 -1.10 -0.85 -0.20 -0.50 -0.75 -1.35 -1.25 -1.85 -0.50 -0.55 -0.90 -1.40 -0.90 -1.85 0 -1.40 -0.55 -2.45 -1.30 -2.45 -0.40 0 -0.70 -0.20 -0.70 -0.50 0 -0.25 -0.45 -0.50 -1 -0.50 -0.55 0 -1 -0.20 -1 -0.50 0 -0.25 0.45 -0.50 1 -0.50 1.20 0 1.30 -0.65 0.15 -1.55 -0.65 -0.55 -0.85 -0.55 -1 -0.05 -0.15 0.30 -0.90 0.60 -1.70 0.60 -1.25 0 -1.45 -0.20 -1.45 -1.40 0 -0.80 -0.40 -1.70 -1 -2.10 -0.55 -0.40 -1 -1.10 -1 -1.60 0 -0.55 -0.35 -0.90 -1 -0.90 -0.65 0 -1 -0.35 -1 -1 0 -0.55 -0.20 -1 -0.50 -1 -0.25 0 -0.50 -0.40 -0.50 -0.90 0 -0.50 -0.45 -1.20 -1 -1.60 -0.60 -0.40 -1 -1.30 -1 -2.10 0 -1.05 -0.25 -1.40 -1 -1.40 -0.55 0 -1 -0.20 -1 -0.50 0 -0.25 -0.45 -0.50 -1 -0.50 -0.80 0 -1 -0.35 -1 -1.50 0 -0.80 0.25 -1.50 0.50 -1.50 0.30 0 0.50 -0.45 0.50 -0.95 0 -0.55 0.25 -1.05 0.60 -1.15 0.40 -0.15 0.25 -0.60 -0.50 -1.40 -0.60 -0.65 -1.10 -1.50 -1.10 -1.85 0 -0.35 -0.20 -0.65 -0.50 -0.65 -0.25 0 -0.50 -0.80 -0.50 -1.75 0 -0.95 -0.20 -2.15 -0.45 -2.65 -0.25 -0.45 -0.70 -1.45 -1.10 -2.20 -0.35 -0.80 -1 -1.40 -1.55 -1.40 -0.55 0 -0.85 -0.20 -0.65 -0.45 0.15 -0.30 0.70 -0.40 1.25 -0.30 0.60 0.10 0.90 0 0.75 -0.30 -0.20 -0.25 -0.75 -0.45 -1.25 -0.45 -1.40 0 -2.50 -0.55 -2.50 -1.25 0 -0.80 10.70 -1 59.50 -1 l37.25 0 4.10 1.60 c11.35 4.35 19.10 13.45 21.45 25.15 2.75 13.80 -4.60 28.50 -17.45 34.95 -7.80 3.90 -6.05 3.75 -43.70 3.95 -23.20 0.10 -33.65 0 -33.65 -0.40z m-11 -36.70 c0 -0.10 -0.15 -0.55 -0.30 -1 -0.45 -1.15 -1.70 -1 -1.70 0.20 0 0.65 0.35 1 1 1 0.55 0 1 -0.10 1 -0.20z" style="fill-opacity: 0.8;"/>
        <path d="M693.50 341 c-0.40 -0.25 -0.55 -0.60 -0.40 -0.80 0.50 -0.45 1.90 0.15 1.90 0.80 0 0.60 -0.50 0.65 -1.50 0z" style="fill-opacity: 0.8;"/>
        <path d="M640 294.50 c0 -0.25 0.20 -0.50 0.40 -0.50 0.65 0 0.65 -5.60 0.05 -6.35 -0.35 -0.35 -1.10 -0.65 -1.80 -0.65 -1.20 0 -3.65 -2 -3.65 -3 0 -0.30 -1.10 -1.70 -2.50 -3.10 -1.55 -1.60 -2.50 -3 -2.50 -3.75 0 -0.60 -0.20 -1.15 -0.50 -1.15 -0.25 0 -0.50 -0.45 -0.50 -1 0 -0.80 -0.35 -1 -1.50 -1 -1.25 0 -1.50 -0.20 -1.50 -1.15 0 -0.65 -0.45 -1.65 -1 -2.25 -0.55 -0.60 -1 -1.50 -1 -2 0 -0.55 -0.85 -1.85 -1.90 -2.95 -1.05 -1.10 -2.05 -2.35 -2.25 -2.80 -0.15 -0.45 -0.65 -0.85 -1.10 -0.85 -0.50 0 -0.75 -0.45 -0.75 -1.30 0 -0.85 -0.30 -1.40 -1 -1.55 -0.55 -0.15 -1 -0.60 -1 -1 0 -0.95 -1.20 -2.15 -2.15 -2.15 -0.40 0 -1 -0.35 -1.40 -0.80 -0.50 -0.65 -0.50 -0.85 0.10 -1.30 0.55 -0.35 0.55 -0.55 0.10 -0.75 -0.35 -0.10 -0.65 -0.90 -0.65 -1.70 0 -1.10 -0.25 -1.45 -1 -1.45 -0.55 0 -1 0.25 -1 0.50 0 0.30 -0.20 0.50 -0.50 0.50 -0.25 0 -0.50 -0.30 -0.50 -0.70 0 -0.35 -0.30 -0.95 -0.70 -1.30 -0.40 -0.30 -0.60 -0.90 -0.45 -1.30 0.20 -0.55 0 -0.75 -0.60 -0.60 -0.60 0.10 -1.20 -0.35 -1.70 -1.30 -0.95 -1.75 -3.55 -4.65 -3.55 -3.95 0 0.30 -1 0.50 -2.20 0.45 -1.55 0 -2.10 -0.20 -1.95 -0.65 0.15 -0.35 0.45 -0.65 0.70 -0.65 0.25 0 0.45 -0.25 0.45 -0.55 0 -0.25 -0.25 -0.35 -0.60 -0.15 -0.35 0.20 -0.40 0.15 -0.20 -0.25 0.20 -0.30 0.55 -0.45 0.75 -0.35 0.20 0.15 2.05 -1.65 4.10 -4 12.80 -14.75 35.70 -26.60 59.20 -30.75 8.55 -1.50 26.60 -1.90 31.25 -0.75 5.30 1.35 6.35 2.10 6.70 4.70 0.45 3.30 0.35 5.60 -0.20 5.60 -0.25 0 -0.50 0.35 -0.50 0.75 0 0.40 0.45 0.75 1 0.75 0.80 0 1 0.35 1 1.70 0 1.25 -0.25 1.80 -0.85 1.90 -0.65 0.15 -0.40 0.45 1 1.10 1.50 0.75 1.85 1.20 1.85 2.35 0 0.80 0.25 1.45 0.50 1.45 0.30 0 0.50 0.90 0.50 1.95 0 1.45 0.30 2.20 1.15 2.90 0.65 0.50 1.50 1.60 1.90 2.40 0.65 1.35 1 1.50 3.35 1.65 2.20 0.15 2.60 0.30 2.60 1.15 0 0.50 0.25 0.95 0.50 0.95 0.30 0 0.50 0.45 0.50 1 0 0.85 0.35 1 2 1 1.90 0 2 0.10 2 1.50 0 1.05 0.25 1.50 0.80 1.50 1 0 2.20 1.20 2.20 2.20 0 0.45 0.40 0.80 1 0.80 0.65 0 1 0.35 1 1 0 0.75 0.35 1 1.30 1 1.45 0 2.70 1.05 2.70 2.20 0 0.45 0.40 0.80 1 0.80 0.65 0 1 0.35 1 1 0 0.65 0.35 1 1 1 0.65 0 1 0.35 1 1 0 0.80 0.35 1 1.50 1 1.40 0 1.50 0.10 1.50 2 0 1.10 0.25 2 0.50 2 0.30 0 0.50 0.45 0.50 1 0 0.55 0.25 1 0.50 1 0.30 0 0.50 0.45 0.50 1 0 0.55 0.25 1 0.50 1 0.30 0 0.50 0.45 0.50 1 0 0.80 0.35 1 1.50 1 1.15 0 1.50 -0.20 1.50 -1 0 -0.85 0.35 -1 2 -1 l2 0 0 2 c0 1.10 -0.20 2 -0.50 2 -0.25 0 -0.50 0.45 -0.50 1 0 0.90 0.35 1 3.95 1 4.75 0 5.55 0.25 5.55 1.75 l0 1.20 -35.85 0.20 -35.90 0.15 -5 1.35 c-10.40 2.70 -18.05 7.05 -24.90 14.30 -1.85 1.95 -3.30 3.05 -4.05 3.05 -1 0 -1.70 0.70 -5 5.20 -0.95 1.30 -2.30 1.75 -2.30 0.80z" style="fill-opacity: 0.8;"/>
        <path d="M607.50 253.25 c-0.35 -0.45 -0.50 -0.90 -0.35 -1.05 0.50 -0.55 1.85 0.25 1.85 1.05 0 0.95 -0.70 0.95 -1.50 0z" style="fill-opacity: 0.8;"/>
      </g>
      <g fill="#87CEEB" transform="matrix(0.177336, 0, 0, 0.179065, -80.714793, -28.512217)" style="" id="object-2">
        <path d="M694.25 556.50 c-15.90 -3.35 -28.80 -13.50 -36.30 -28.55 -1.65 -3.25 -1.90 -4.15 -1.40 -4.75 1.15 -1.40 8.75 -6.15 13.75 -8.65 5.35 -2.65 12.50 -5 19.20 -6.35 4.20 -0.80 20 -1.40 20 -0.70 0 0.15 0.80 0.65 1.75 1 1.10 0.40 1.70 0.95 1.55 1.35 -0.15 0.40 0.35 0.80 1.35 1.05 1.45 0.40 2.60 2.10 1.40 2.10 -0.30 0 -0.55 -0.20 -0.55 -0.50 0 -0.25 -0.45 -0.50 -1 -0.50 -0.60 0 -1 0.35 -1 0.80 0 0.95 1.20 2.20 2.10 2.20 1 0.05 5.25 4.60 4.55 4.85 -0.75 0.30 -0.90 4.15 -0.15 4.15 0.30 0 0.50 0.45 0.50 1 0 0.55 0.25 1 0.50 1 0.30 0 0.50 0.45 0.50 1 0 0.55 0.25 1 0.50 1 0.30 0 0.50 0.70 0.50 1.50 0 1.05 0.25 1.50 0.80 1.50 1.15 0 2.20 1.25 2.20 2.70 0 0.70 0.25 1.30 0.50 1.30 0.30 0 0.50 0.45 0.50 1 0 0.55 0.25 1 0.50 1 0.30 0 0.50 0.90 0.50 1.95 0 1.10 0.20 2.05 0.40 2.15 0.25 0.10 0.60 0.75 0.75 1.45 0.45 1.70 -1.05 3.45 -2.85 3.45 -1.50 0 -1.60 0.25 -0.55 1.35 0.45 0.45 1.30 0.65 2 0.50 0.70 -0.10 1.25 -0.10 1.25 0 0 0.80 -2.80 2.90 -5.30 3.85 -1.70 0.70 -3.15 1.65 -3.45 2.25 -0.55 1.20 -3.40 2.40 -3.65 1.55 -0.25 -0.75 -1.60 -0.60 -1.60 0.20 0 0.45 -1.15 0.85 -3.75 1.25 -5.35 0.80 -10.80 0.65 -16 -0.45z" style="fill-opacity: 0.8;"/>
        <path d="M647.50 551.10 c-36.80 -12.90 -64.75 -43.55 -73.95 -81.20 -5.90 -24 -3.95 -48.95 5.50 -70.90 3.20 -7.50 7.75 -15.35 12.55 -21.65 4.15 -5.60 9.75 -11.90 7.80 -8.85 -0.65 0.95 -1.65 2.25 -2.25 2.90 -1.35 1.30 -1.45 2 -0.40 2.45 0.50 0.15 1.30 -0.30 2.20 -1.30 0.75 -0.85 1.75 -1.55 2.20 -1.55 0.50 0 0.85 -0.40 0.85 -1 0 -0.65 0.35 -1 0.95 -1 0.55 0 1.05 -0.25 1.15 -0.60 0.15 -0.40 0.55 -0.45 1.20 -0.15 0.90 0.40 0.90 0.45 -0.20 0.60 -1.10 0.20 -1.65 2.15 -0.60 2.15 0.30 0 0.50 0.45 0.50 1 0 0.55 0.25 1 0.50 1 0.30 0 0.50 0.35 0.50 0.80 0 0.40 0.35 1.10 0.75 1.50 0.65 0.70 0.85 0.70 1.55 0 0.70 -0.75 0.70 -0.90 -0.25 -2.10 -1.10 -1.40 -1.35 -2.20 -0.60 -2.20 0.45 0 2.10 3.15 2 3.85 -0.05 0.20 -0.05 0.75 0 1.15 0.05 0.60 0.15 0.60 0.50 0.10 0.35 -0.55 0.45 -0.55 0.70 0.10 0.20 0.45 0.15 0.75 -0.05 0.75 -1.20 -0.20 -1.60 0.20 -1.60 1.55 0 1.15 0.20 1.50 1 1.50 0.60 0 1 -0.35 1 -0.85 0 -0.70 0.10 -0.75 0.65 -0.20 0.45 0.55 0.45 0.70 0 0.90 -0.35 0.15 -0.65 0.90 -0.65 1.70 0 1.10 0.25 1.45 1 1.45 0.80 0 1 0.35 1 1.50 0 0.85 0.15 1.50 0.40 1.50 0.55 0 2.60 4.70 2.60 5.95 0 0.60 0.25 1.05 0.50 1.05 0.30 0 0.50 0.55 0.50 1.20 0 0.70 0.25 1.40 0.50 1.55 0.30 0.20 0.50 -0.80 0.50 -2.60 0 -2.35 -0.20 -3.05 -1 -3.65 -0.55 -0.40 -1 -1 -1 -1.35 0 -0.35 -0.20 -0.65 -0.50 -0.65 -0.25 0 -0.50 -0.35 -0.50 -0.75 0 -0.40 -0.20 -0.75 -0.50 -0.75 -0.75 0 -0.60 -2.90 0.10 -3.10 0.45 -0.15 0.10 -0.90 -1 -2.10 -0.85 -1 -1.60 -2.10 -1.60 -2.45 0.05 -0.35 0.55 0 1.15 0.80 0.60 0.75 1.70 2.10 2.45 2.95 0.75 0.90 1.15 1.75 0.90 1.90 -0.40 0.25 2 4.35 2.95 5 0.20 0.15 0.50 0.65 0.70 1.15 0.15 0.45 0.65 0.85 1.10 0.85 0.40 0 0.75 0.35 0.75 0.75 0 0.45 0.30 0.90 0.70 1.05 0.40 0.15 2.25 2.65 4.15 5.60 4.75 7.30 5.95 9.35 5.25 8.90 -0.70 -0.40 -2.10 0.80 -2.10 1.80 0 0.40 0.45 1 1 1.40 0.55 0.40 1 1.05 1 1.50 0 0.45 0.45 1.10 1 1.50 0.55 0.40 1 1.10 1 1.60 0 0.50 0.25 0.90 0.50 0.90 0.30 0 0.50 0.35 0.50 0.80 0 1.30 1.30 2.20 3.15 2.20 1 0 1.90 0.30 2 0.65 0.20 0.45 0.40 0.40 0.80 -0.15 0.25 -0.40 0.65 -0.55 0.90 -0.35 0.20 0.25 0.10 0.55 -0.20 0.75 -0.30 0.20 -0.65 1.05 -0.70 1.85 -0.15 1.20 -0.05 1.45 0.65 1.35 0.60 -0.10 0.80 0.10 0.60 0.65 -0.20 0.50 0 0.75 0.75 0.75 1.30 0 1.35 0.80 0.10 2.80 -1.55 2.55 -4.40 10.65 -5.30 15.05 -0.70 3.60 -0.80 8.05 -0.60 39 l0.15 34.90 1.30 5.25 c1.55 6.25 3.15 10.60 5.95 16.10 2.30 4.60 7.25 12.05 9.20 13.90 1.25 1.15 1.60 2.05 0.90 1.95 -0.25 0 -3.45 -1.05 -7.15 -2.35z m-17.50 -144.10 c0 -0.65 -0.35 -1 -1 -1 -0.65 0 -1 0.35 -1 1 0 0.65 0.35 1 1 1 0.65 0 1 -0.35 1 -1z m-2 -2.50 c0 -0.25 -0.20 -0.50 -0.50 -0.50 -0.25 0 -0.50 -0.50 -0.50 -1.15 0 -0.65 -0.40 -1.60 -0.90 -2.15 -0.50 -0.50 -1.15 -1.65 -1.50 -2.45 -0.85 -2.05 -3.75 -5.25 -4.75 -5.25 -1.45 0 -1.05 2.45 0.65 4 0.85 0.75 1.50 1.70 1.50 2.10 0 0.35 0.45 1 1 1.40 0.55 0.40 1 1 1 1.40 0 0.90 1.25 2.10 2.20 2.10 0.45 0 0.80 0.25 0.80 0.50 0 0.30 0.25 0.50 0.50 0.50 0.30 0 0.50 -0.20 0.50 -0.50z m-5 -0.80 c0 -0.35 -1.35 -1.70 -1.70 -1.70 -0.15 0 -0.30 0.45 -0.30 1 0 0.65 0.35 1 1 1 0.55 0 1 -0.15 1 -0.30z" style="fill-opacity: 0.8;"/>
        <path d="M728.50 533.25 c-0.35 -0.45 -0.50 -0.90 -0.35 -1.10 0.40 -0.35 1.85 0.75 1.85 1.40 0 0.70 -0.80 0.55 -1.50 -0.30z" style="fill-opacity: 0.8;"/>
        <path d="M726.05 528.70 c-0.60 -0.70 -1 -1.40 -0.85 -1.55 0.30 -0.30 2.25 1.80 2.30 2.50 0 0.50 -0.10 0.45 -1.45 -0.95z" style="fill-opacity: 0.8;"/>
        <path d="M721.55 523.15 c-0.35 -0.40 -0.50 -0.85 -0.35 -1 0.45 -0.45 1.45 0.65 1.25 1.25 -0.10 0.30 -0.50 0.15 -0.90 -0.25z" style="fill-opacity: 1;"/>
        <path d="M716.80 515.20 c-0.55 -0.35 -0.85 -0.85 -0.65 -1 0.15 -0.20 0.70 0.05 1.15 0.50 1.05 1.10 0.75 1.40 -0.50 0.50z" style="fill-opacity: 1;"/>
        <path d="M683.75 485 c-0.50 -0.55 -0.80 -1.10 -0.65 -1.25 0.15 -0.15 0.65 0.30 1.10 1 1 1.50 0.80 1.60 -0.45 0.25z" style="fill-opacity: 1;"/>
        <path d="M680.85 482.10 c-0.50 -0.50 -0.85 -1.20 -0.85 -1.60 0 -0.35 0.50 -0.05 1.05 0.70 1.20 1.55 1.05 2.25 -0.20 0.90z" style="fill-opacity: 1;"/>
        <path d="M677 476.65 c-0.65 -1.35 -1.30 -2.55 -1.35 -2.75 -0.10 -0.20 0.10 -0.30 0.45 -0.15 0.70 0.30 2.70 4.65 2.30 5.05 -0.15 0.10 -0.75 -0.85 -1.40 -2.15z" style="fill-opacity: 1;"/>
        <path d="M644.15 423.75 c-0.65 -0.70 -0.35 -1.25 0.70 -1.25 0.70 0 0.90 1.30 0.30 1.65 -0.25 0.15 -0.65 -0.05 -1 -0.40z" style="fill-opacity: 1;"/>
        <path d="M638 415.20 c-0.70 -1 -1.90 -2.55 -2.70 -3.50 -0.75 -0.95 -1.20 -1.70 -0.95 -1.70 0.25 0 0.75 0.45 1.15 1 0.40 0.55 0.95 1 1.20 1 0.30 0 -0.20 -0.75 -1 -1.60 -0.85 -0.90 -1.85 -2.10 -2.25 -2.65 -0.65 -0.95 -0.65 -0.95 0.30 -0.25 2.10 1.60 4.25 4 4.25 4.75 0 0.40 0.25 0.75 0.50 0.75 0.30 0 0.50 0.35 0.50 0.80 0 0.40 -0.20 0.60 -0.50 0.45 -0.95 -0.60 -0.50 0.55 0.50 1.25 0.55 0.40 1 0.90 1 1.10 0 0.85 -0.80 0.30 -2 -1.40z" style="fill-opacity: 1;"/>
        <path d="M570.25 345.50 c0 -9.10 0.15 -16.50 0.35 -16.50 0.20 0 0.35 2.30 0.35 5.15 0 4.90 0.45 19.35 0.60 19.85 0.05 0.15 0.10 0.70 0.15 1.25 0.05 0.75 0.35 0.95 1.20 0.85 1.55 -0.25 1.40 0.65 -0.75 3.45 -1 1.35 -1.85 2.45 -1.90 2.45 0 0 0 -7.45 0 -16.50z" style="fill-opacity: 1;"/>
        <path d="M574.05 355.55 c-0.85 -0.55 -0.30 -3.15 0.60 -2.95 0.35 0.10 1.50 -0.80 2.55 -2 1.75 -1.90 3.30 -2.70 3.30 -1.70 0 0.25 -0.85 1.40 -1.85 2.65 -3.55 4.15 -3.85 4.45 -4.60 4z" style="fill-opacity: 1;"/>
      </g>
      <g fill="#DA70D6" transform="matrix(0.177336, 0, 0, 0.179065, -80.714793, -28.512217)" style="" id="object-3">
        <path d="M749.80 268.75 c-0.20 -0.60 -1.15 -0.75 -4.20 -0.75 -4.15 0 -4.95 -0.25 -4.05 -1.35 0.45 -0.50 0.40 -0.65 -0.20 -0.65 -0.50 0 -0.65 -0.30 -0.50 -1 0.25 -0.90 0 -1 -2.30 -1 -2.20 0 -2.55 -0.15 -2.55 -1 0 -0.55 -0.20 -1 -0.50 -1 -0.25 0 -0.50 -0.45 -0.50 -1 0 -0.55 -0.20 -1 -0.50 -1 -0.25 0 -0.50 -0.45 -0.50 -1 0 -0.80 -0.35 -1 -1.50 -1 -1.35 0 -1.50 -0.15 -1.50 -1.50 0 -1.15 0.20 -1.50 1 -1.50 0.55 0 1 -0.20 1 -0.50 0 -0.25 -0.65 -0.50 -1.50 -0.50 -1.15 0 -1.50 -0.20 -1.50 -1 0 -0.65 -0.35 -1 -1 -1 -0.65 0 -1 -0.35 -1 -1 0 -0.65 -0.35 -1 -1 -1 -0.60 0 -1 -0.35 -1 -0.80 0 -1.15 -1.25 -2.20 -2.70 -2.20 -0.95 0 -1.30 -0.25 -1.30 -1 0 -0.65 -0.35 -1 -1 -1 -0.60 0 -1 -0.35 -1 -0.80 0 -0.80 -1.15 -2.20 -1.80 -2.20 -0.25 0 -0.15 0.25 0.20 0.60 0.90 0.90 0.75 1.40 -0.40 1.40 -0.70 0 -1 -0.35 -1 -1.15 0 -0.65 -0.30 -1.45 -0.60 -1.80 -0.50 -0.55 -0.50 -0.70 0 -0.90 1.30 -0.50 0.50 -1.15 -1.40 -1.15 -1.65 0 -2 -0.15 -2 -1 0 -0.55 -0.20 -1 -0.50 -1 -0.25 0 -0.50 -0.45 -0.50 -1 0 -0.65 -0.35 -1 -1 -1 -0.55 0 -1 0.20 -1 0.45 0 0.25 -0.35 0.55 -0.75 0.75 -0.80 0.30 -3.25 -2 -3.25 -3.05 0 -0.35 -0.70 -1.25 -1.50 -2 -1.15 -1 -1.50 -1.75 -1.50 -3.25 0 -1.05 -0.20 -1.90 -0.50 -1.90 -0.25 0 -0.50 -0.65 -0.50 -1.45 0 -1.15 -0.35 -1.60 -1.75 -2.25 -1.30 -0.65 -1.80 -1.20 -2.05 -2.55 -0.15 -0.95 -0.50 -1.75 -0.75 -1.75 -0.25 0 -0.45 -0.45 -0.45 -1 0 -0.55 -0.20 -1 -0.50 -1 -0.25 0 -0.50 -0.20 -0.50 -0.50 0 -0.25 0.45 -0.50 1 -0.50 0.65 0 1 -0.35 1 -1 0 -0.55 0.25 -1 0.50 -1 0.75 0 0.60 -1.50 -0.30 -2.35 -0.65 -0.70 -0.85 -0.70 -1.20 -0.10 -0.25 0.35 -0.65 0.50 -0.85 0.25 -0.20 -0.25 -0.10 -0.55 0.20 -0.65 0.35 -0.15 0.65 -0.55 0.65 -0.90 0 -0.35 0.35 -0.75 0.80 -0.85 1.25 -0.25 -2.10 -1.75 -6.80 -2.95 -3.50 -0.95 -4.05 -1.20 -3 -1.50 0.70 -0.20 22.95 -0.35 49.45 -0.40 53.65 -0.05 51.20 -0.20 58.55 3.35 4.75 2.30 12 9.30 14.35 13.85 3 5.75 3.90 9.40 3.85 15.75 0 4.95 -0.20 6.30 -1.40 9.75 -1.95 5.70 -4.70 10.05 -8.75 13.90 -4.20 3.95 -7.40 5.90 -12.80 7.70 -4 1.35 -4 1.35 -21.85 1.55 -11.35 0.10 -17.90 0 -17.90 -0.30 0 -0.25 -0.35 -0.60 -0.70 -0.75 -0.50 -0.20 -0.65 -0.05 -0.45 0.45 0.15 0.35 0.15 0.70 0 0.70 -0.15 0 -0.35 -0.35 -0.55 -0.75z" style="fill-opacity: 1;"/>
      </g>
    </g>
    <g class="layer" transform="matrix(0.831976, -0.004137, 0.003349, 0.673233, 69.355021, -4.379118)" style="transform-origin: 140.874px 43.5149px;" id="object-4">
      <title>Layer 1</title>
      <image display="none" height="480" id="container" transform="translate(0 0)" width="480" x="272" y="144" />
<g id="logo-center">
  <image display="none" height="0" id="icon_container" width="0" x="-342.31" y="-146.42" />
  <g font-family="'Montserrat ExtraBold Alt1'" font-size="72px" font-style="normal" font-weight="800" id="title" text-anchor="middle" style="transform-origin: 125.252px 35.987px;" transform="matrix(1.218001, 0.007965, -0.011215, 1.714936, 15.621897, 7.527917)">
    <path d="m206.95,-245.28l17.07,0l0,-19.23l28.53,0l0,-12.26l-45.6,0l0,31.49zm0,-56.09l0,12.26l45.6,0l0,-12.26l-45.6,0z" id="path593267" stroke="#00bfff" stroke-miterlimit="2" stroke-width="0" transform="translate(-204.848 0) translate(0 309.292)" style="fill: #ADD8E6; fill-opacity: 0.8;" />
    <path d="M 75.992 60.149 C 80.982 62.512 86.672 63.665 93.052 63.665 C 98.572 63.665 103.482 62.827 107.972 61.064 C 112.362 59.386 116.072 56.861 118.992 53.573 L 108.132 44.882 C 104.172 49.084 99.432 51.143 93.912 51.143 C 90.642 51.143 87.712 50.524 85.122 49.237 C 82.532 48.017 80.552 46.187 79.172 43.89 C 77.792 41.603 77.102 38.925 77.102 35.876 C 77.102 32.892 77.792 30.224 79.172 27.937 C 80.542 25.65 82.532 23.81 85.122 22.514 C 87.712 21.294 90.642 20.609 93.912 20.609 C 99.432 20.609 104.172 22.753 108.132 26.869 L 118.992 18.178 C 116.072 14.966 112.362 12.45 107.972 10.687 C 103.482 9.01 98.572 8.095 93.052 8.095 C 86.672 8.095 80.982 9.315 75.992 11.688 C 70.992 14.052 67.022 17.33 64.172 21.533 C 61.232 25.821 59.862 30.548 59.862 35.894 C 59.862 41.241 61.242 46.053 64.172 50.257 C 67.022 54.536 70.982 57.804 75.992 60.187 L 75.992 60.149 Z" id="path593269" stroke="#6495ed" stroke-miterlimit="2" stroke-width="0" style="fill: #ADD8E6; fill-opacity: 0.8;" />
    <path d="m349.8,-288.79l0,43.51l17.06,0l0,-43.51l18.45,0l0,-12.57l-54.05,0l0,12.57l18.53,0l0,0z" id="path593271" stroke="#9400d3" stroke-miterlimit="2" stroke-width="0" transform="translate(-204.848 0) translate(0 309.292)" style="fill: #D8BFD8; fill-opacity: 0.8;" />
    <path d="m440.24,-262.91c3.71,-1.68 6.63,-4.01 8.7,-7.06c2.07,-3.04 3.1,-6.57 3.1,-10.65c0,-4.18 -1.12,-7.86 -3.27,-10.98c-2.24,-3.12 -5.35,-5.52 -9.31,-7.21c-4.05,-1.68 -8.79,-2.56 -14.22,-2.56l-27.59,0l0,12.49l26.56,0c3.45,0 6.12,0.73 7.93,2.17c1.72,1.43 2.67,3.52 2.67,6.08c0,2.64 -0.94,4.64 -2.67,6.08c-1.81,1.45 -4.48,2.08 -7.93,2.08l-26.56,0l0,27.16l17.07,0l0,-14.9l9.3,0l10.96,14.9l18.27,0l-13.02,-17.63l0,0z" id="path593273" stroke="#ba55d3" stroke-miterlimit="2" stroke-width="0" transform="translate(-204.848 0) translate(0 309.292)" style="fill: #DA70D6; fill-opacity: 0.8;" />
  </g>
  <image display="none" height="0" id="icon" width="0" x="-342.31" y="-146.42" />
</g>
    </g>
  </g>
</svg>